<svg width="50" height="50" viewBox="0 0 50 50" fill="none" xmlns="http://www.w3.org/2000/svg">
<path d="M42.2169 14.4481C40.2813 12.5079 37.5846 11.3028 34.6267 11.3033H25.9681C23.0102 11.3027 20.3135 12.5079 18.3771 14.4473C16.4385 16.3828 15.2318 19.0795 15.2332 22.0383V34.1608C15.2332 38.4942 16.8925 42.4459 19.6042 45.3181C22.3084 48.1909 26.1075 50.0016 30.2971 50C34.4867 50.0016 38.2856 48.1909 40.9914 45.3181C43.7016 42.4459 45.3617 38.4942 45.3617 34.1608V22.0383C45.3624 19.0795 44.1571 16.3828 42.2169 14.4481ZM41.2119 34.1608C41.2119 37.4297 39.9636 40.3598 37.9739 42.47C35.9773 44.5795 33.2813 45.8496 30.297 45.8511C27.3134 45.8496 24.6174 44.5795 22.6216 42.47C20.6303 40.3598 19.3822 37.4289 19.3822 34.1608V28.2984H41.2119V34.1608ZM41.2119 25.3351H30.3474V15.4524H34.6267C36.4516 15.4538 38.0853 16.1864 39.2838 17.3812C40.4786 18.5797 41.2112 20.2127 41.2119 22.0383V25.3351Z" fill="#EDEDED"/>
<path d="M23.5311 0H21.1604V6.81631H23.5311V0Z" fill="#EDEDED"/>
<path d="M32.2267 2.96479L30.1728 1.77905L26.7646 7.68286L28.8185 8.86802L32.2267 2.96479Z" fill="#EDEDED"/>
<path d="M4.63901 18.8928H11.4546V16.5221L4.63843 16.5214L4.63901 18.8928Z" fill="#EDEDED"/>
<path d="M6.41828 9.88074L12.3213 13.2889L13.507 11.2352L7.60402 7.82703L6.41828 9.88074Z" fill="#EDEDED"/>
<path d="M17.9271 7.68286L14.5195 1.77905L12.4658 2.96558L15.8732 8.86802L17.9271 7.68286Z" fill="#EDEDED"/>
</svg>
