<svg width="50" height="50" viewBox="0 0 50 50" fill="none" xmlns="http://www.w3.org/2000/svg">
<g clip-path="url(#clip0_45_32)">
<path d="M40.4021 4.0625C37.8999 1.55635 34.4149 -0.000976103 30.5938 4.59016e-07H19.4054C15.5842 -0.000976103 12.0992 1.55635 9.59814 4.0625C7.09209 6.56357 5.53467 10.0485 5.53564 13.8697V29.5339C5.53564 35.1326 7.67949 40.2389 11.1824 43.95C14.6784 47.6621 19.5866 50.0021 25.0001 50C30.4136 50.0021 35.3218 47.6621 38.8168 43.95C42.3207 40.2389 44.4645 35.1336 44.4645 29.5339V13.8696C44.4655 10.0484 42.9071 6.56348 40.4021 4.0625ZM10.8973 13.8696C10.8982 11.5116 11.8451 9.40088 13.3883 7.85361C14.9366 6.30938 17.0474 5.3625 19.4054 5.36152H23.0854V18.1302H10.8973V13.8696ZM39.1029 29.5338C39.1029 33.7573 37.4906 37.5445 34.9184 40.2709C32.3393 42.9961 28.8553 44.6365 25.0001 44.6386C21.1438 44.6365 17.6609 42.9961 15.0818 40.2709C12.5096 37.5445 10.8973 33.7574 10.8973 29.5338V21.9595H39.1029V29.5338ZM39.1029 18.1302H26.9147V5.36152H30.5938C32.9518 5.3625 35.0626 6.30938 36.6108 7.85361C38.1551 9.40088 39.102 11.5116 39.1029 13.8696V18.1302Z" fill="#EDEDED"/>
</g>
<defs>
<clipPath id="clip0_45_32">
<rect width="50" height="50" fill="white"/>
</clipPath>
</defs>
</svg>
