<svg width="50" height="50" viewBox="0 0 50 50" fill="none" xmlns="http://www.w3.org/2000/svg">
<path d="M24.0319 11.3033H15.3726C12.4154 11.3027 9.71792 12.5079 7.78228 14.4481C5.84292 16.3829 4.63696 19.0796 4.63843 22.0383V34.1608C4.63843 38.4942 6.29771 42.4459 9.00874 45.3181C11.7137 48.1909 15.5126 50.0016 19.7023 50C23.8918 50.0016 27.6908 48.1909 30.3959 45.3181C33.1069 42.4459 34.7669 38.4942 34.7669 34.1608V22.0383C34.7677 19.0795 33.5616 16.3828 31.6222 14.4473C29.6859 12.5079 26.9891 11.3027 24.0319 11.3033ZM8.78745 22.0383C8.78892 20.2127 9.52144 18.5797 10.7162 17.3812C11.9139 16.1865 13.5477 15.4538 15.3726 15.4524H19.6518V25.3351H8.78745V22.0383ZM30.6178 34.1608C30.6178 37.4289 29.3688 40.3598 27.3784 42.47C25.3825 44.5795 22.6866 45.8496 19.7023 45.8511C16.718 45.8496 14.0228 44.5795 12.0261 42.47C10.0364 40.3598 8.78745 37.4297 8.78745 34.1608V28.2984H30.6179V34.1608H30.6178Z" fill="#EDEDED"/>
<path d="M28.8395 0H26.468V6.81631H28.8395V0Z" fill="#EDEDED"/>
<path d="M23.2354 7.68286L19.8272 1.77905L17.7734 2.96479L21.1816 8.86802L23.2354 7.68286Z" fill="#EDEDED"/>
<path d="M38.5454 16.5221V18.8928H45.361L45.3617 16.5214L38.5454 16.5221Z" fill="#EDEDED"/>
<path d="M42.3963 7.82678L36.4932 11.2349L37.6789 13.2887L43.5813 9.88049L42.3963 7.82678Z" fill="#EDEDED"/>
<path d="M37.5336 2.96558L35.4807 1.77905L32.0725 7.68286L34.1262 8.86802L37.5336 2.96558Z" fill="#EDEDED"/>
</svg>
