<svg width="50" height="50" viewBox="0 0 50 50" fill="none" xmlns="http://www.w3.org/2000/svg">
<path d="M37.2581 46H12.7419C10.9539 46 9.23902 45.3047 7.97468 44.0668C6.71031 42.8291 6 41.1503 6 39.4V10.6C6 8.84956 6.71031 7.17083 7.97468 5.9331C9.23902 4.69535 10.9539 4 12.7419 4H31.129C31.6164 4.00043 32.0839 4.19034 32.4284 4.528L43.4606 15.4C43.8056 15.7372 43.9995 16.1948 44 16.672V39.4C44 41.1503 43.2898 42.8291 42.0252 44.0668C40.7609 45.3047 39.046 46 37.2581 46ZM12.7419 7.6C11.9292 7.6 11.1497 7.91608 10.575 8.47869C10.0003 9.0413 9.67742 9.80435 9.67742 10.6V39.4C9.67742 40.1956 10.0003 40.9588 10.575 41.5214C11.1497 42.0839 11.9292 42.4 12.7419 42.4H37.2581C38.0708 42.4 38.8504 42.0839 39.425 41.5214C39.9997 40.9588 40.3226 40.1956 40.3226 39.4V17.344L30.369 7.6H12.7419Z" fill="#EDEDED"/>
<path d="M37 45H33.2105V29.6774H16.7895V45H13V29.0645C13 28.2518 13.3327 27.4722 13.9249 26.8975C14.5172 26.3229 15.3204 26 16.1579 26H33.8421C34.6796 26 35.4829 26.3229 36.0751 26.8975C36.6673 27.4722 37 28.2518 37 29.0645V45Z" fill="#EDEDED"/>
<path d="M25.8492 17H16.1508C15.7338 16.9967 15.3215 16.9091 14.9375 16.7423C14.5535 16.5755 14.2053 16.3326 13.9127 16.0276C13.6201 15.7227 13.3889 15.3615 13.2324 14.9649C13.0758 14.5682 12.9968 14.1438 13.0001 13.7158V5H16.6924V13.2105H25.3076V5H28.9999V13.7158C29.0031 14.1438 28.9243 14.5682 28.7678 14.9649C28.611 15.3615 28.3799 15.7227 28.0874 16.0276C27.7947 16.3326 27.4464 16.5755 27.0624 16.7423C26.6785 16.9091 26.2662 16.9967 25.8492 17Z" fill="#EDEDED"/>
</svg>
