<svg width="50" height="50" viewBox="0 0 50 50" fill="none" xmlns="http://www.w3.org/2000/svg">
<path d="M25 6C19.9609 6 15.1282 8.00178 11.565 11.565C8.00178 15.1282 6 19.9609 6 25C6 30.0391 8.00178 34.8718 11.565 38.435C15.1282 41.9982 19.9609 44 25 44C30.0391 44 34.8718 41.9982 38.435 38.435C41.9982 34.8718 44 30.0391 44 25C44 19.9609 41.9982 15.1282 38.435 11.565C34.8718 8.00178 30.0391 6 25 6ZM25 10.75C28.7793 10.75 32.4039 12.2513 35.0763 14.9237C37.7487 17.5961 39.25 21.2207 39.25 25C39.25 28.7793 37.7487 32.4039 35.0763 35.0763C32.4039 37.7487 28.7793 39.25 25 39.25C21.2207 39.25 17.5961 37.7487 14.9237 35.0763C12.2513 32.4039 10.75 28.7793 10.75 25C10.75 21.2207 12.2513 17.5961 14.9237 14.9237C17.5961 12.2513 21.2207 10.75 25 10.75Z" fill="#EDEDED"/>
<path d="M42 27V23L7 23V27H42Z" fill="#EDEDED"/>
<path d="M35.1495 11.4089L31.0359 9.03394L13.9711 38.5911L18.0847 40.9661L35.1495 11.4089Z" fill="#EDEDED"/>
<path d="M18.0846 9.03394L13.9709 11.4089L31.0358 40.9661L35.1494 38.5911L18.0846 9.03394Z" fill="#EDEDED"/>
</svg>
